<?xml version="1.0" encoding="UTF-8" standalone="no"?>
<!DOCTYPE svg PUBLIC "-//W3C//DTD SVG 1.1//EN"
 "http://www.w3.org/Graphics/SVG/1.1/DTD/svg11.dtd">
<!-- Generated by graphviz version 2.44.1 (20200629.0846)
 -->
<!-- Title: G Pages: 1 -->
<svg width="887pt" height="98pt"
 viewBox="0.00 0.00 886.55 98.00" xmlns="http://www.w3.org/2000/svg" xmlns:xlink="http://www.w3.org/1999/xlink">
<g id="graph0" class="graph" transform="scale(1 1) rotate(0) translate(4 94)">
<title>G</title>
<polygon fill="white" stroke="transparent" points="-4,4 -4,-94 882.55,-94 882.55,4 -4,4"/>
<!-- UEL -->
<g id="node1" class="node">
<title>UEL</title>
<ellipse fill="lightgreen" stroke="lightgreen" cx="329.12" cy="-45" rx="113.98" ry="18"/>
<text text-anchor="middle" x="329.12" y="-41.3" font-family="Times,serif" font-size="14.00">Update Elasticsearch Library</text>
</g>
<!-- UFS -->
<g id="node2" class="node">
<title>UFS</title>
<ellipse fill="lightgreen" stroke="lightgreen" cx="575.71" cy="-45" rx="96.68" ry="18"/>
<text text-anchor="middle" x="575.71" y="-41.3" font-family="Times,serif" font-size="14.00">Update FooBars Service</text>
</g>
<!-- UEL&#45;&gt;UFS -->
<g id="edge3" class="edge">
<title>UEL&#45;&gt;UFS</title>
<path fill="none" stroke="black" d="M443.11,-45C451.56,-45 460.07,-45 468.48,-45"/>
<polygon fill="black" stroke="black" points="468.68,-48.5 478.68,-45 468.68,-41.5 468.68,-48.5"/>
</g>
<!-- FooBars searchable on Web -->
<g id="node5" class="node">
<title>FooBars searchable on Web</title>
<polygon fill="lightblue" stroke="lightblue" points="878.55,-63 708.55,-63 708.55,-27 878.55,-27 878.55,-63"/>
<text text-anchor="middle" x="793.55" y="-41.3" font-family="Times,serif" font-size="14.00">FooBars searchable on Web</text>
</g>
<!-- UFS&#45;&gt;FooBars searchable on Web -->
<g id="edge4" class="edge">
<title>UFS&#45;&gt;FooBars searchable on Web</title>
<path fill="none" stroke="black" d="M672.63,-45C681.12,-45 689.7,-45 698.17,-45"/>
<polygon fill="black" stroke="black" points="698.44,-48.5 708.44,-45 698.44,-41.5 698.44,-48.5"/>
</g>
<!-- Upgrade Elasticsearch -->
<g id="node3" class="node">
<title>Upgrade Elasticsearch</title>
<ellipse fill="lightgreen" stroke="lightgreen" cx="89.69" cy="-72" rx="89.88" ry="18"/>
<text text-anchor="middle" x="89.69" y="-68.3" font-family="Times,serif" font-size="14.00">Upgrade Elasticsearch</text>
</g>
<!-- Upgrade Elasticsearch&#45;&gt;UEL -->
<g id="edge1" class="edge">
<title>Upgrade Elasticsearch&#45;&gt;UEL</title>
<path fill="none" stroke="black" d="M168.11,-63.2C186.66,-61.09 206.75,-58.8 226.23,-56.59"/>
<polygon fill="black" stroke="black" points="226.8,-60.04 236.34,-55.44 226.01,-53.09 226.8,-60.04"/>
</g>
<!-- Upgrade Spring Boot -->
<g id="node4" class="node">
<title>Upgrade Spring Boot</title>
<ellipse fill="lightgreen" stroke="lightgreen" cx="89.69" cy="-18" rx="86.38" ry="18"/>
<text text-anchor="middle" x="89.69" y="-14.3" font-family="Times,serif" font-size="14.00">Upgrade Spring Boot</text>
</g>
<!-- Upgrade Spring Boot&#45;&gt;UEL -->
<g id="edge2" class="edge">
<title>Upgrade Spring Boot&#45;&gt;UEL</title>
<path fill="none" stroke="black" d="M165.82,-26.54C184.99,-28.72 205.93,-31.1 226.21,-33.41"/>
<polygon fill="black" stroke="black" points="226.08,-36.92 236.41,-34.57 226.87,-29.96 226.08,-36.92"/>
</g>
</g>
</svg>
